<svg version="1.2" xmlns="http://www.w3.org/2000/svg" viewBox="0 0 70 101" width="70" height="101"><style>.a{fill:none;stroke:#185255;stroke-width:2}.b{fill:#0e8388}</style><path class="a" d="m22.3 26.7q5.4 2.2 11.2 3.2 0 0 0.1 0 0.1 0 0.2-0.1 0.2 0 0.4-0.1 0.1-0.1 0.3-0.1l12.8-5.3q0.2 0 0.4-0.2 0.1-0.1 0.2-0.3 0.1-0.1 0.2-0.3 0-0.2 0-0.4c-1.7-17.3-27.9-15.3-26.6 2.3q0 0.2 0.1 0.4 0.1 0.2 0.2 0.4 0.1 0.2 0.2 0.3 0.2 0.1 0.3 0.2z"/><path class="a" d="m58.3 53.1c-4.4-4.1-4-8.7-0.7-13.9q1.1-1.6 1.1-4v-8q0-0.2-0.1-0.4-0.1-0.3-0.3-0.4-0.2-0.1-0.5-0.2-0.3 0-0.6 0.1l-20.7 6.7q-1.7 0.5-1.6 2.2l2.6 34.5q0 0.2 0.1 0.4 0.1 0.2 0.3 0.3 0.1 0.1 0.3 0.1 0.2 0.1 0.3 0l19.5-7.7q0.1-0.1 0.3-0.2 0.1-0.1 0.2-0.2 0.1 0 0.1-0.1 0.1-0.1 0.1-0.2v-8.1q0-0.1 0-0.2 0-0.1-0.1-0.3 0-0.1-0.1-0.2-0.1-0.1-0.2-0.2z"/><path class="a" d="m31.2 34.2c-7.4-2.2-14.8-4.3-22.5-5.9q-0.2-0.1-0.5 0-0.2 0.1-0.4 0.2-0.2 0.2-0.3 0.5-0.1 0.2-0.1 0.5l0.9 10.5q0 0.1 0 0.3 0.1 0.1 0.1 0.2 0.1 0.1 0.2 0.2 0 0.1 0.1 0.2c1.2 1 2.8 1.5 3.7 2.5q4.8 4.7 1.4 11c-0.8 1.5-2 1.8-3.2 3q-0.1 0.1-0.2 0.2 0 0.1-0.1 0.2 0 0.1 0 0.2 0 0.1 0 0.2l0.8 6.2q0 0.2 0.1 0.3 0.1 0.2 0.2 0.3 0.1 0.1 0.3 0.2 0.2 0.1 0.4 0.2l20.6 5.4q0.3 0.1 0.6 0 0.3-0.1 0.6-0.3 0.2-0.2 0.3-0.4 0.2-0.3 0.1-0.7l-2.6-34.7q0 0 0-0.1-0.1-0.1-0.1-0.2-0.1-0.1-0.2-0.1-0.1-0.1-0.2-0.1z"/><path class="a" d="m60.7 50.3q0.7 0.2 1.4 0 0.7-0.2 1.4-0.8 0.7-0.6 1.2-1.4 0.4-0.8 0.7-1.8 0.3-1 0.2-1.9 0-1-0.3-1.8-0.3-0.8-0.8-1.3-0.6-0.6-1.2-0.8-0.7-0.1-1.4 0.1-0.8 0.2-1.4 0.7-0.7 0.6-1.2 1.4-0.5 0.9-0.7 1.8-0.3 1-0.3 2 0.1 0.9 0.4 1.7 0.3 0.9 0.8 1.4 0.5 0.5 1.2 0.7z"/><path class="a" d="m4.2 51.9c2.7 5.5 9.1 0.4 7.4-4.2-0.8-2.2-3.7-3.3-5.8-4.2q-0.2 0-0.4 0-0.2 0-0.4 0-0.1 0.1-0.3 0.2-0.1 0.2-0.2 0.3-2.1 4.2-0.3 7.9z"/><path class="a" d="m28.7 93.7l0.5-3"/><path class="a" d="m45.2 83.2l0.4 12.5"/><path class="a" d="m51.6 88.1q2.6-6.9 3.3-15.5 0.1-0.2-0.1-0.5-0.1-0.2-0.3-0.4-0.2-0.2-0.4-0.2-0.3 0-0.5 0.1l-14.1 6q-0.1 0-0.3 0.1-0.1 0.1-0.3 0.1-0.1 0-0.2 0-0.1 0-0.2 0l-17.3-4.3q-0.1 0-0.2 0-0.1 0-0.2 0.1-0.1 0.1-0.2 0.2 0 0.1 0 0.2 0.3 10 3.4 19.5"/><path class="b" d="m45.8 2c1.1-1.4 2.6-2.1 3.4-1.5 0.8 0.6 0.4 2.2-0.7 3.7-1.1 1.4-2.6 2.1-3.4 1.5-0.8-0.6-0.4-2.2 0.7-3.7z"/><path class="b" d="m20.8 1.1c0.5-0.4 1.2-0.5 1.6 0l2.7 2.6c0.5 0.4 0.5 1.1 0.1 1.5l-0.7 0.7c-0.4 0.5-1.1 0.5-1.6 0.1l-2.7-2.7c-0.4-0.4-0.4-1.1 0-1.5z"/><path fill-rule="evenodd" class="b" d="m41.4 86.8c-11.3-0.5-6.8 10-12.7 12.7-4.2 2-7.8-4.6-8.7-8q-2.8-10.3-3-21 0-0.1 0-0.3-0.1-0.1-0.1-0.2-0.1-0.1-0.2-0.2-0.1 0-0.2-0.1l-7.3-1.9q-0.2 0-0.4-0.2-0.2-0.1-0.4-0.3-0.1-0.1-0.2-0.4-0.1-0.2-0.2-0.4l-0.8-8q0-0.1 0-0.2-0.1-0.2-0.2-0.3 0-0.1-0.1-0.1-0.1-0.1-0.3-0.2c-8.1-2.8-8.7-13.1-1.8-17.7q0.1-0.1 0.2-0.2 0.1-0.1 0.2-0.1 0-0.1 0-0.2 0-0.2 0-0.3l-1.4-13.9q0-0.3 0-0.5 0-0.2 0-0.3 0-0.2 0-0.2 0.1-0.1 0.1-0.2 0.9-0.2 1.8-0.1 0.2 0 0.3 0 0.1 0 0.1-0.1 0.1-0.1 0.2-0.2 0-0.1 0-0.2-0.2-0.8 0.1-1.6 0.1-0.1 0.2-0.1 0.1-0.1 0.2-0.1 0.2 0 0.3 0 0.2 0 0.4 0.1l9.7 3.2q0.2 0.1 0.4 0.1 0.1 0 0.3-0.1 0.1-0.1 0.2-0.2 0.1-0.2 0.1-0.3c0.4-2.8 0.8-5.5 2-7.9 7.9-15 27.1-9.9 31 5q0.1 0.2 0.1 0.3 0.1 0.1 0.2 0.2 0.1 0.1 0.2 0.1 0.1 0 0.2 0l5.9-2.3q1.3-0.6 1 0.6-0.5 1.6 2.8 1.3 0.1 0 0.2 0 0 0 0.1 0.1 0 0.1 0.1 0.2 0 0.1 0 0.1v13.5q0 0.2 0 0.3 0.1 0.1 0.1 0.1 0.1 0.1 0.2 0.2 0.1 0.1 0.2 0.1c8.5 2.9 8.9 14.2 0.3 17.3q-0.1 0-0.3 0.2-0.1 0.1-0.3 0.3-0.1 0.2-0.1 0.4-0.1 0.2-0.1 0.4l0.2 9.7q0 0.2 0 0.3 0 0.1-0.1 0.2 0 0.1-0.1 0.1-0.1 0.1-0.2 0.1-1.5 0-2.6 1-0.1 0.1-0.1 0.2-0.1 0.1-0.1 0.2 0 0.2-0.1 0.3 0 0.2 0 0.4 0 15-6.6 28.5-1.1 2.3-3.6 3.4c-7.7 3.6-6.8-7.2-6.8-12.1q0-0.1 0-0.2 0-0.1-0.1-0.2-0.1 0-0.2-0.1-0.1 0-0.2 0zm-19.1-60.1q5.4 2.2 11.2 3.2 0 0 0.1 0 0.1 0 0.2-0.1 0.2 0 0.4-0.1 0.1-0.1 0.3-0.1l12.8-5.3q0.2 0 0.4-0.2 0.1-0.1 0.2-0.3 0.1-0.1 0.2-0.3 0-0.2 0-0.4c-1.7-17.3-27.9-15.3-26.6 2.3q0 0.2 0.1 0.4 0.1 0.2 0.2 0.4 0.1 0.2 0.2 0.3 0.2 0.1 0.3 0.2zm36 26.4c-4.4-4.1-4-8.7-0.7-13.9q1.1-1.6 1.1-4v-8q0-0.2-0.1-0.4-0.1-0.3-0.3-0.4-0.2-0.1-0.5-0.2-0.3 0-0.6 0.1l-20.7 6.7q-1.7 0.5-1.6 2.2l2.6 34.5q0 0.2 0.1 0.4 0.1 0.2 0.3 0.3 0.1 0.1 0.3 0.1 0.2 0.1 0.3 0l19.5-7.7q0.1-0.1 0.3-0.2 0.1-0.1 0.2-0.2 0.1 0 0.1-0.1 0.1-0.1 0.1-0.2v-8.1q0-0.1 0-0.2 0-0.1-0.1-0.3 0-0.1-0.1-0.2-0.1-0.1-0.2-0.2zm-27.1-18.9c-7.4-2.2-14.8-4.3-22.5-5.9q-0.2-0.1-0.5 0-0.2 0.1-0.4 0.2-0.2 0.2-0.3 0.5-0.1 0.2-0.1 0.5l0.9 10.5q0 0.1 0 0.3 0.1 0.1 0.1 0.2 0.1 0.1 0.2 0.2 0 0.1 0.1 0.2c1.2 1 2.8 1.5 3.7 2.5q4.8 4.7 1.4 11c-0.8 1.5-2 1.8-3.2 3q-0.1 0.1-0.2 0.2 0 0.1-0.1 0.2 0 0.1 0 0.2 0 0.1 0 0.2l0.8 6.2q0 0.2 0.1 0.3 0.1 0.2 0.2 0.3 0.1 0.1 0.3 0.2 0.2 0.1 0.4 0.2l20.6 5.4q0.3 0.1 0.6 0 0.3-0.1 0.6-0.3 0.2-0.2 0.3-0.4 0.2-0.3 0.1-0.7l-2.6-34.7q0 0 0-0.1-0.1-0.1-0.1-0.2-0.1-0.1-0.2-0.1-0.1-0.1-0.2-0.1zm29.5 16.1q0.7 0.2 1.4 0 0.7-0.2 1.4-0.8 0.7-0.6 1.2-1.4 0.4-0.8 0.7-1.8 0.3-1 0.2-1.9 0-1-0.3-1.8-0.3-0.8-0.8-1.3-0.6-0.6-1.2-0.8-0.7-0.1-1.4 0.1-0.8 0.2-1.4 0.7-0.7 0.6-1.2 1.4-0.5 0.9-0.7 1.8-0.3 1-0.3 2 0.1 0.9 0.4 1.7 0.3 0.9 0.8 1.4 0.5 0.5 1.2 0.7zm-56.5 1.6c2.7 5.5 9.1 0.4 7.4-4.2-0.8-2.2-3.7-3.3-5.8-4.2q-0.2 0-0.4 0-0.2 0-0.4 0-0.1 0.1-0.3 0.2-0.1 0.2-0.2 0.3-2.1 4.2-0.3 7.9zm19.8 41.6q2.6 6.2 4.7 0.2l0.5-3q4.8-9.2 16-7.5l0.4 12.5q-0.4 1 0.3 1.2 0.1 0 0.3 0 0.1 0 0.2 0 0.1-0.1 0.2-0.1 0.1-0.1 0.2-0.2 3.7-3.4 4.8-8.5 2.6-6.9 3.3-15.5 0.1-0.2-0.1-0.5-0.1-0.2-0.3-0.4-0.2-0.2-0.4-0.2-0.3 0-0.5 0.1l-14.1 6q-0.1 0-0.3 0.1-0.1 0.1-0.3 0.1-0.1 0-0.2 0-0.1 0-0.2 0l-17.3-4.3q-0.1 0-0.2 0-0.1 0-0.2 0.1-0.1 0.1-0.2 0.2 0 0.1 0 0.2 0.3 10 3.4 19.5z"/></svg>